<svg width="15" height="15" viewBox="0 0 15 15" fill="none" xmlns="http://www.w3.org/2000/svg">
<path d="M3.96826 14.118L7.37088e-06 15L0.882007 11.0317C0.301273 9.94524 -0.00172311 8.73197 7.37088e-06 7.5C7.37088e-06 3.35775 3.35776 0 7.5 0C11.6423 0 15 3.35775 15 7.5C15 11.6422 11.6423 15 7.5 15C6.26803 15.0017 5.05476 14.6987 3.96826 14.118ZM4.18576 12.5332L4.67551 12.7957C5.54447 13.26 6.51482 13.5019 7.5 13.5C8.68669 13.5 9.84673 13.1481 10.8334 12.4888C11.8201 11.8295 12.5892 10.8925 13.0433 9.7961C13.4974 8.69974 13.6162 7.49334 13.3847 6.32946C13.1532 5.16557 12.5818 4.09647 11.7426 3.25736C10.9035 2.41824 9.83443 1.8468 8.67054 1.61529C7.50666 1.38378 6.30026 1.5026 5.2039 1.95672C4.10755 2.41085 3.17048 3.17988 2.51119 4.16658C1.8519 5.15327 1.50001 6.31331 1.50001 7.5C1.50001 8.50125 1.74376 9.46275 2.20501 10.3245L2.46676 10.8142L1.97551 13.0245L4.18576 12.5332Z" fill="white"/>
</svg>
