<svg width="25" height="31" viewBox="0 0 25 31" fill="none" xmlns="http://www.w3.org/2000/svg">
<path d="M19.5611 19.7982C20.8672 18.4263 21.7403 16.704 22.0725 14.8442C22.4047 12.9843 22.1814 11.0685 21.4301 9.33349C20.6789 7.59846 19.4328 6.12029 17.8457 5.08169C16.2586 4.04309 14.4001 3.48958 12.5 3.48958C10.5999 3.48958 8.74144 4.04309 7.15434 5.08169C5.56724 6.12029 4.32107 7.59846 3.56986 9.33349C2.81865 11.0685 2.59532 12.9843 2.9275 14.8442C3.25967 16.704 4.13277 18.4263 5.43889 19.7982C6.18881 18.6096 7.23014 17.6297 8.4652 16.9506C9.70027 16.2715 11.0886 15.9154 12.5 15.9156C13.9114 15.9154 15.2997 16.2715 16.5348 16.9506C17.7699 17.6297 18.8112 18.6096 19.5611 19.7982ZM12.5 30.7279L3.66112 21.9411C1.91298 20.2032 0.722481 17.989 0.240178 15.5785C-0.242124 13.1681 0.00542617 10.6695 0.951526 8.39891C1.89763 6.12829 3.49978 4.18756 5.55539 2.82214C7.611 1.45671 10.0277 0.727921 12.5 0.727921C14.9723 0.727921 17.389 1.45671 19.4446 2.82214C21.5002 4.18756 23.1024 6.12829 24.0485 8.39891C24.9946 10.6695 25.2421 13.1681 24.7598 15.5785C24.2775 17.989 23.087 20.2032 21.3389 21.9411L12.5 30.7279ZM12.5 14.5349C11.3949 14.5349 10.3351 14.0985 9.55372 13.3217C8.77232 12.5449 8.33334 11.4914 8.33334 10.3928C8.33334 9.29423 8.77232 8.24066 9.55372 7.46386C10.3351 6.68706 11.3949 6.25066 12.5 6.25066C13.6051 6.25066 14.6649 6.68706 15.4463 7.46386C16.2277 8.24066 16.6667 9.29423 16.6667 10.3928C16.6667 11.4914 16.2277 12.5449 15.4463 13.3217C14.6649 14.0985 13.6051 14.5349 12.5 14.5349Z" fill="#353957"/>
</svg>
